# xmcd
#
# Track frame offsets:
#	150
#	21342
#	39061
#	61219
#	78108
#	94869
#	110766
#	128387
#	145399
#	162065
#	177938
#
# Disc length: 2600 seconds
#
# Revision: 1
# Processed by: cddbd v1.5.2PL0 Copyright (c) Steve Scherf et al.
# Submitted via: audiograbber 1.81.02
#
DISCID=810a260b
DTITLE=Robin English - Velvet Covered Brick
DYEAR=2007
DGENRE=Female
TTITLE0=Cottonfield Girl
TTITLE1=Enjoy the Ride
TTITLE2=Mission of Mercy
TTITLE3=The Least I Can Do
TTITLE4=Mama's Don't Let Your Cowboys Grow Up To Be Babies
TTITLE5=Wake Up Loving You
TTITLE6=Yellow Rose In Me
TTITLE7=Baby You're The Man
TTITLE8=I'm The One
TTITLE9=Lion And The Lamb
TTITLE10=Cottonfield Girl (Radio Edit)
EXTD=
EXTT0=
EXTT1=
EXTT2=
EXTT3=
EXTT4=
EXTT5=
EXTT6=
EXTT7=
EXTT8=
EXTT9=
EXTT10=
PLAYORDER=
